<svg xmlns="http://www.w3.org/2000/svg">
  <symbol id="sun" viewBox="0 0 24 24"><circle cx="12" cy="12" r="4"/><path d="M12 2v2M12 20v2M4.93 4.93l1.42 1.42M17.65 17.65l1.42 1.42M2 12h2M20 12h2M4.93 19.07l1.42-1.42M17.65 6.35l1.42-1.42"/></symbol>
  <symbol id="home" viewBox="0 0 24 24"><path d="m3 11 9-8 9 8"/><path d="M5 10v10h14V10"/><path d="M9 20v-6h6v6"/></symbol>
  <symbol id="building" viewBox="0 0 24 24"><path d="M4 21V4h10v17"/><path d="M14 9h6v12"/><path d="M8 8h2M8 12h2M8 16h2M17 13h1M17 17h1M2 21h20"/></symbol>
  <symbol id="heart" viewBox="0 0 24 24"><path d="M20.8 4.6a5.5 5.5 0 0 0-7.8 0L12 5.7l-1.1-1.1a5.5 5.5 0 0 0-7.8 7.8l1.1 1.1L12 21l7.8-7.5 1.1-1.1a5.5 5.5 0 0 0-.1-7.8Z"/></symbol>
  <symbol id="factory" viewBox="0 0 24 24"><path d="M3 21V9l6 3V9l6 3V5h6v16"/><path d="M3 21h18M7 17h1M12 17h1M17 17h1"/></symbol>
  <symbol id="shield" viewBox="0 0 24 24"><path d="M12 22s8-4 8-10V5l-8-3-8 3v7c0 6 8 10 8 10Z"/><path d="m9 12 2 2 4-4"/></symbol>
  <symbol id="badge" viewBox="0 0 24 24"><circle cx="12" cy="8" r="5"/><path d="m8.5 12.5-1 8 4.5-2 4.5 2-1-8"/></symbol>
  <symbol id="finance" viewBox="0 0 24 24"><path d="M3 10h18M5 6h14M5 14h14v6H5z"/><path d="M8 17h3"/></symbol>
  <symbol id="tools" viewBox="0 0 24 24"><path d="m14.7 6.3 3-3a4 4 0 0 1-5 5l-7.4 7.4a2.1 2.1 0 0 0 3 3l7.4-7.4a4 4 0 0 1 5-5l-3 3"/></symbol>
  <symbol id="bolt" viewBox="0 0 24 24"><path d="m13 2-9 12h8l-1 8 9-12h-8l1-8Z"/></symbol>
  <symbol id="chart" viewBox="0 0 24 24"><path d="M3 3v18h18"/><path d="m7 16 4-5 3 3 5-7"/></symbol>
  <symbol id="calendar" viewBox="0 0 24 24"><rect x="3" y="5" width="18" height="16" rx="2"/><path d="M16 3v4M8 3v4M3 11h18"/></symbol>
  <symbol id="clock" viewBox="0 0 24 24"><circle cx="12" cy="12" r="9"/><path d="M12 7v5l3 2"/></symbol>
  <symbol id="phone" viewBox="0 0 24 24"><path d="M22 16.9v3a2 2 0 0 1-2.2 2 19.8 19.8 0 0 1-8.6-3.1 19.4 19.4 0 0 1-6-6A19.8 19.8 0 0 1 2.1 4.2 2 2 0 0 1 4.1 2h3a2 2 0 0 1 2 1.7c.1 1 .4 1.9.7 2.8a2 2 0 0 1-.5 2.1L8 9.9a16 16 0 0 0 6 6l1.3-1.3a2 2 0 0 1 2.1-.5c.9.3 1.8.6 2.8.7a2 2 0 0 1 1.8 2.1Z"/></symbol>
  <symbol id="mail" viewBox="0 0 24 24"><rect x="3" y="5" width="18" height="14" rx="2"/><path d="m3 7 9 6 9-6"/></symbol>
  <symbol id="map" viewBox="0 0 24 24"><path d="m3 6 6-3 6 3 6-3v15l-6 3-6-3-6 3Z"/><path d="M9 3v15M15 6v15"/></symbol>
  <symbol id="pin" viewBox="0 0 24 24"><path d="M20 10c0 5-8 12-8 12S4 15 4 10a8 8 0 1 1 16 0Z"/><circle cx="12" cy="10" r="2"/></symbol>
  <symbol id="check" viewBox="0 0 24 24"><circle cx="12" cy="12" r="9"/><path d="m8 12 2.5 2.5L16 9"/></symbol>
  <symbol id="plus" viewBox="0 0 24 24"><path d="M12 5v14M5 12h14"/></symbol>
  <symbol id="arrow" viewBox="0 0 24 24"><path d="M5 12h14M13 6l6 6-6 6"/></symbol>
  <symbol id="menu" viewBox="0 0 24 24"><path d="M4 7h16M4 12h16M4 17h16"/></symbol>
  <symbol id="battery" viewBox="0 0 24 24"><rect x="3" y="6" width="17" height="12" rx="2"/><path d="M20 10h2v4h-2M8 9l-2 3h3l-2 3"/></symbol>
  <symbol id="car" viewBox="0 0 24 24"><path d="m5 11 2-5h10l2 5"/><rect x="3" y="11" width="18" height="7" rx="2"/><path d="M6 18v2M18 18v2M7 14h.01M17 14h.01"/></symbol>
  <symbol id="panel" viewBox="0 0 24 24"><path d="M4 5h16l-2 10H6L4 5Z"/><path d="M8 5 7 15M12 5v10M16 5l1 10M5 10h14M9 19h6M12 15v4"/></symbol>
  <symbol id="leaf" viewBox="0 0 24 24"><path d="M20 4S8 4 5 11c-2 5 3 9 7 7 7-3 8-14 8-14Z"/><path d="M4 20c4-7 9-9 13-11"/></symbol>
  <symbol id="grid" viewBox="0 0 24 24"><rect x="3" y="3" width="7" height="7" rx="1"/><rect x="14" y="3" width="7" height="7" rx="1"/><rect x="3" y="14" width="7" height="7" rx="1"/><rect x="14" y="14" width="7" height="7" rx="1"/></symbol>
  <symbol id="users" viewBox="0 0 24 24"><path d="M16 21v-2a4 4 0 0 0-4-4H6a4 4 0 0 0-4 4v2"/><circle cx="9" cy="7" r="4"/><path d="M22 21v-2a4 4 0 0 0-3-3.9M16 3.1a4 4 0 0 1 0 7.8"/></symbol>
  <symbol id="facebook" viewBox="0 0 24 24"><path d="M14 8h3V4h-3c-3 0-5 2-5 5v3H6v4h3v6h4v-6h3l1-4h-4V9c0-.6.4-1 1-1Z"/></symbol>
  <symbol id="instagram" viewBox="0 0 24 24"><rect x="3" y="3" width="18" height="18" rx="5"/><circle cx="12" cy="12" r="4"/><circle cx="17.5" cy="6.5" r=".5" fill="currentColor" stroke="none"/></symbol>
  <symbol id="linkedin" viewBox="0 0 24 24"><rect x="3" y="9" width="4" height="12"/><path d="M5 3.5a2 2 0 1 0 0 4 2 2 0 0 0 0-4ZM11 21V9h4v2c1-2 6-3 6 3v7h-4v-6c0-2-2-2-2 0v6Z"/></symbol>
</svg>
